# xmcd
#
# Track frame offsets:
#	150
#	9501
#	16996
#	28403
#	37166
#	43652
#	50300
#	55846
#	61544
#	71459
#	75879
#	80373
#	87107
#	90101
#	93243
#	97361
#	105905
#	110397
#	119337
#	134317
#	142861
#	154778
#	163248
#	180626
#	193795
#	202114
#	207130
#	213123
#
# Disc length: 3078 seconds
#
# Revision: 0
# Processed by: cddbd v1.5.1PL0 Copyright (c) Steve Scherf et al.
# Submitted via: EasyCDDAExtractor 4.5.0.2
#
DISCID=690c041c
DTITLE=йуяитсгс-йытяытсоу - та лыяазтийа
DYEAR=1900
DGENRE=дглотийа
TTITLE0=ле йатгцоягсе о мтоумиас
TTITLE1=емас кебемтгс диабаиме
TTITLE2=паяалеяисте куцеяес
TTITLE3=се поиом ма пы том помо лоу
TTITLE4=диаламти йаи яоулпими
TTITLE5=циел емас агтос
TTITLE6=г хгба евеи олояжес
TTITLE7=ас па' ма доум та латиа лоу
TTITLE8=оса поукайиа
TTITLE9=то бяаду то йомтобяадо
TTITLE10=лес' т' алпеки стг стажида
TTITLE11=соукилиытисса
TTITLE12=стауяоука
TTITLE13=жояас йаимоуяиа жояесиа
TTITLE14=дем сто 'па лиа дем сто ╢па дуо
TTITLE15=ейеи ьгка 
TTITLE16=окес ои лекавяимес 
TTITLE17=дуо лауяа латиа ацапы
TTITLE18=поукайи немо
TTITLE19=пяытылациа
TTITLE20=стгс аяйадиас том пкатамо
TTITLE21=неме поу еисаи стгм немитиа
TTITLE22=о окулпос йи о йисабос
TTITLE23=40 баяйес сто цуако
TTITLE24=ти ма се йамы цакамг
TTITLE25=ле 'йаьес цеитомисса
TTITLE26=йояг поу пас стом потало
TTITLE27=то папайи паеи стгм поталиа
EXTD=
EXTT0=
EXTT1=
EXTT2=
EXTT3=
EXTT4=
EXTT5=
EXTT6=
EXTT7=
EXTT8=
EXTT9=
EXTT10=
EXTT11=
EXTT12=
EXTT13=
EXTT14=
EXTT15=
EXTT16=
EXTT17=
EXTT18=
EXTT19=
EXTT20=
EXTT21=
EXTT22=
EXTT23=
EXTT24=
EXTT25=
EXTT26=
EXTT27=
PLAYORDER=
